<svg preserveAspectRatio="none" overflow="visible" style="display: block;" width="16" height="16" viewBox="0 0 16 16" fill="none" xmlns="http://www.w3.org/2000/svg">
<g id="Icon" clip-path="url(#clip0_0_4)">
<path id="Vector" d="M15.25 11.5C15.25 13.5711 13.5711 15.25 11.5 15.25H4.5C2.42893 15.25 0.75 13.5711 0.75 11.5V4.5C0.75 2.42893 2.42893 0.75 4.5 0.75H11.5C13.5711 0.75 15.25 2.42893 15.25 4.5V11.5ZM13.75 4.5C13.75 3.25736 12.7426 2.25 11.5 2.25H4.5C3.25736 2.25 2.25 3.25736 2.25 4.5V11.5C2.25 12.7426 3.25736 13.75 4.5 13.75H11.5C12.7426 13.75 13.75 12.7426 13.75 11.5V4.5ZM6.25 11.5C6.25 11.9142 5.91421 12.25 5.5 12.25C5.08579 12.25 4.75 11.9142 4.75 11.5V4.5C4.75 4.08579 5.08579 3.75 5.5 3.75C5.91421 3.75 6.25 4.08579 6.25 4.5V11.5Z" fill="#A0A0A0"/>
</g>
<defs>
<clipPath id="clip0_0_4">
<rect width="16" height="16" fill="white"/>
</clipPath>
</defs>
</svg>
